<svg xmlns="http://www.w3.org/2000/svg" width="370" height="1235" viewBox="0 0 370 1235">
  <g id="Group_17" data-name="Group 17" transform="translate(-2179 964)">
    <path id="Intersection_1" data-name="Intersection 1" d="M0,370C0,574.345,165.654,740,370,740V0C165.654,0,0,165.655,0,370Z" transform="translate(2549 -74) rotate(180)" fill="#7a57fb"/>
    <path id="Intersection_2" data-name="Intersection 2" d="M0,235C0,364.787,105.213,470,235,470V0C105.213,0,0,105.213,0,235Z" transform="translate(2414 271) rotate(180)" fill="#7a57fb"/>
    <path id="Intersection_3" data-name="Intersection 3" d="M0,178A178,178,0,0,0,178,356V0A178,178,0,0,0,0,178Z" transform="translate(2357 -608) rotate(180)" fill="#7a57fb"/>
  </g>
</svg>
