<svg xmlns="http://www.w3.org/2000/svg" width="342" height="126" viewBox="0 0 342 126">
  <g id="recoveryico" transform="translate(1390 185)">
    <g id="recoveryico-2" data-name="recoveryico">
      <g id="Group_16" data-name="Group 16">
        <g id="Group_15" data-name="Group 15">
          <g id="newcaseico">
            <g id="Group_13" data-name="Group 13">
              <g id="Group_12" data-name="Group 12" transform="translate(122 68)">
                <g id="newcasenst" transform="translate(17 197)">
                  <g id="totoalcasenew" transform="translate(143.615 -8)">
                    <g id="Subtraction_2" data-name="Subtraction 2" transform="translate(-1529 -416)" fill="#422d98">
                      <path d="M 173.385009765625 95.99990844726563 L -3.615307092666626 95.99990844726563 L -118.6145782470703 95.99990844726563 C -121.4514923095703 95.99990844726563 -124.2013549804688 95.44522857666016 -126.7878036499023 94.35127258300781 C -129.2880859375 93.29386138916016 -131.5343017578125 91.77918243408203 -133.4642181396484 89.84931945800781 C -135.3941192626953 87.91941070556641 -136.9088134765625 85.67317962646484 -137.9661254882813 83.17304229736328 C -139.0601196289063 80.58645629882813 -139.6148071289063 77.83659362792969 -139.6148071289063 74.99972534179688 L -139.6148071289063 33.00027084350586 C -139.6148071289063 30.16340827941895 -139.0601196289063 27.41354560852051 -137.9661712646484 24.82699966430664 C -136.9087677001953 22.32681846618652 -135.3941192626953 20.08059120178223 -133.4642181396484 18.15068244934082 C -131.5343017578125 16.22081756591797 -129.2880859375 14.70613670349121 -126.7878952026367 13.64877319335938 C -124.2013549804688 12.55477237701416 -121.4514923095703 12.00009059906006 -118.6145782470703 12.00009059906006 L 173.385009765625 12.00009059906006 C 176.2216491699219 12.00009059906006 178.9714202880859 12.55477237701416 181.5579681396484 13.64872741699219 C 184.0582427978516 14.70622730255127 186.3044586181641 16.22090911865234 188.2342834472656 18.15068244934082 C 190.1642456054688 20.08063697814941 191.6790161132813 22.3269100189209 192.7365112304688 24.82709121704102 C 193.8304595947266 27.4135913848877 194.3851928710938 30.16345405578613 194.3851928710938 33.00027084350586 L 194.3851928710938 74.99972534179688 C 194.3851928710938 77.8365478515625 193.8304595947266 80.58641052246094 192.7364654541016 83.17295074462891 C 191.6790161132813 85.67308807373047 190.1642456054688 87.91936492919922 188.2342834472656 89.849365234375 C 186.3044586181641 91.77913665771484 184.0581970214844 93.29381561279297 181.5579681396484 94.35127258300781 C 178.9714202880859 95.44522857666016 176.2216491699219 95.99990844726563 173.385009765625 95.99990844726563 Z" stroke="none"/>
                      <path d="M 173.3850402832031 91.99990081787109 C 175.6834869384766 91.99990081787109 177.9090423583984 91.55155181884766 179.9996490478516 90.66735076904297 C 182.0232391357422 89.8114013671875 183.8421936035156 88.58454895019531 185.4058990478516 87.02085113525391 C 186.9697418212891 85.45700073242188 188.1966400146484 83.63815307617188 189.0524444580078 81.61475372314453 C 189.9367980957031 79.52390289306641 190.3851928710938 77.29830169677734 190.3851928710938 74.99970245361328 L 190.3851928710938 33.00030136108398 C 190.3851928710938 30.70170021057129 189.9367980957031 28.47610092163086 189.0524444580078 26.38525009155273 C 188.1966400146484 24.36185073852539 186.9697418212891 22.54299926757813 185.4058990478516 20.97915077209473 C 183.8421478271484 19.41544914245605 182.023193359375 18.18860054016113 179.9998474121094 17.33275032043457 C 177.9090423583984 16.44845008850098 175.6834869384766 16.00009918212891 173.3850402832031 16.00009918212891 L -118.6146087646484 16.00009918212891 C -120.9132537841797 16.00009918212891 -123.1389541625977 16.44845008850098 -125.2298049926758 17.33279991149902 C -127.2531051635742 18.18849945068359 -129.0719604492188 19.4153003692627 -130.6357574462891 20.97909927368164 C -132.1996002197266 22.54294967651367 -133.4264068603516 24.36174964904785 -134.2821502685547 26.38525009155273 C -135.1664581298828 28.47599983215332 -135.6148071289063 30.70165061950684 -135.6148071289063 33.00030136108398 L -135.6148071289063 74.99970245361328 C -135.6148071289063 77.29834747314453 -135.1664123535156 79.52400207519531 -134.2820587158203 81.61505126953125 C -133.4264068603516 83.63825225830078 -132.1996002197266 85.45704650878906 -130.6357574462891 87.02089691162109 C -129.0719604492188 88.58470153808594 -127.2531051635742 89.81150054931641 -125.2297592163086 90.66725158691406 C -123.1389541625977 91.55155181884766 -120.9132537841797 91.99990081787109 -118.6146087646484 91.99990081787109 L -3.615307092666626 91.99990081787109 L 173.3850402832031 91.99990081787109 M 173.3850402832031 99.99990081787109 L -3.615307092666626 99.99990081787109 L -118.6146087646484 99.99990081787109 C -121.9897079467773 99.99990081787109 -125.2638549804688 99.33889770507813 -128.3460083007813 98.03534698486328 C -131.3230133056641 96.77629852294922 -133.9966583251953 94.97370147705078 -136.2926025390625 92.67774963378906 C -138.5886077880859 90.38175201416016 -140.3912048339844 87.70809936523438 -141.6502075195313 84.73114776611328 C -142.9538116455078 81.64894866943359 -143.6148071289063 78.37484741210938 -143.6148071289063 74.99970245361328 L -143.6148071289063 33.00030136108398 C -143.6148071289063 29.62515068054199 -142.9538116455078 26.35104942321777 -141.6502075195313 23.26889991760254 C -140.3912048339844 20.29190063476563 -138.5886077880859 17.61824989318848 -136.2926025390625 15.32225036621094 C -133.9966583251953 13.02630043029785 -131.3230133056641 11.22369956970215 -128.3460083007813 9.96465015411377 C -125.2638549804688 8.661100387573242 -121.9897079467773 8.000100135803223 -118.6146087646484 8.000100135803223 L 173.3850402832031 8.000100135803223 C 176.7599487304688 8.000100135803223 180.033935546875 8.661100387573242 183.1160888671875 9.96465015411377 C 186.0931396484375 11.22385025024414 188.7667999267578 13.02639961242676 191.0626983642578 15.32225036621094 C 193.3586883544922 17.61820030212402 195.1613464355469 20.29184913635254 196.4204864501953 23.26889991760254 C 197.7241363525391 26.35104942321777 198.3851928710938 29.62515068054199 198.3851928710938 33.00030136108398 L 198.3851928710938 74.99970245361328 C 198.3851928710938 78.37484741210938 197.7241363525391 81.64894866943359 196.4204864501953 84.73114776611328 C 195.1613464355469 87.70815277099609 193.3586883544922 90.38179779052734 191.0626983642578 92.67774963378906 C 188.7667999267578 94.97364807128906 186.0931396484375 96.77615356445313 183.1160888671875 98.03534698486328 C 180.033935546875 99.33889770507813 176.7599487304688 99.99990081787109 173.3850402832031 99.99990081787109 Z" stroke="none" fill="#50cd8a"/>
                    </g>
                    <g id="Ellipse_5" data-name="Ellipse 5" transform="translate(-1532.615 -442)" fill="#fff" stroke="#50cd8a" stroke-width="8">
                      <circle cx="34.5" cy="34.5" r="34.5" stroke="none"/>
                      <circle cx="34.5" cy="34.5" r="30.5" fill="none"/>
                    </g>
                  </g>
                </g>
              </g>
            </g>
          </g>
        </g>
      </g>
    </g>
    <path id="running-solid" d="M28.769,10.154a5.077,5.077,0,1,0-5.077-5.077A5.077,5.077,0,0,0,28.769,10.154ZM12.025,33.579,10.46,37.23H3.385a3.385,3.385,0,0,0,0,6.769h8.192a5.066,5.066,0,0,0,4.665-3.077l.93-2.17-1.129-.666a10.072,10.072,0,0,1-4.018-4.507Zm28.59-9.887H35.958L33.2,18.059a10.149,10.149,0,0,0-6.534-5.388L19.15,10.435a10.111,10.111,0,0,0-8.55,1.813L6.4,15.465a3.384,3.384,0,1,0,4.119,5.371l4.2-3.216a3.294,3.294,0,0,1,2.673-.649l1.555.462-3.962,9.243a6.787,6.787,0,0,0,2.782,8.494l8.988,5.306L23.85,49.755a3.384,3.384,0,1,0,6.459,2.022l3.347-10.689a5.1,5.1,0,0,0-2.289-5.753L24.89,31.513l3.312-8.28,2.144,4.382a5.108,5.108,0,0,0,4.56,2.844h5.71a3.384,3.384,0,1,0,0-6.768Z" transform="translate(-1134 -131)" fill="#50cd8a"/>
  </g>
</svg>
